<?xml version="1.0" encoding="UTF-8" standalone="no"?>
<svg width="1024px" height="574px" viewBox="0 0 1024 574" version="1.1" xmlns="http://www.w3.org/2000/svg" xmlns:xlink="http://www.w3.org/1999/xlink">
    <!-- Generator: Sketch 40.1 (33804) - http://www.bohemiancoding.com/sketch -->
    <title>Background</title>
    <desc>Created with Sketch.</desc>
    <defs>
        <linearGradient x1="99.0253448%" y1="92.7513656%" x2="-11.5283966%" y2="-20.6992238%" id="linearGradient-1">
            <stop stop-color="#0F3CA1" offset="0%"></stop>
            <stop stop-color="#20EEED" offset="100%"></stop>
			
        </linearGradient>
		
        <path  d="M1030,0 L6,0 L6,543.65625 C6,543.65625 
82.75,570.476562 234.179687,543.65625 C385.609375,516.835937 407.539063,493.257812 524.34375,483.257812 C641.148437,473.257812 751.113281,495.179688 847.183594,512.4375 C943.253906,529.695312 1030,489.289062 1030,473.257812" id="path-2"></path>
        <path d="M246,70 C248.761424,70 251,67.7614237 251,65 C251,62.2385763 248.761424,60 246,60 C243.238576,60 241,62.2385763 241,65 C241,67.7614237 243.238576,70 246,70 Z" id="path-4"></path>
        <filter x="-50%" y="-50%" width="300%" height="300%" filterUnits="objectBoundingBox" id="filter-5">
            <feMorphology radius="1" operator="dilate" in="SourceAlpha" result="shadowSpreadOuter1"></feMorphology>
            <feOffset dx="0" dy="1" in="shadowSpreadOuter1" result="shadowOffsetOuter1"></feOffset>
            <feGaussianBlur stdDeviation="3" in="shadowOffsetOuter1" result="shadowBlurOuter1"></feGaussianBlur>
            <feComposite in="shadowBlurOuter1" in2="SourceAlpha" operator="out" result="shadowBlurOuter1"></feComposite>
            <feColorMatrix values=" 0 0 0 0   0 0 0 0 0   0 0 0 0 0  0 0 0 0.5 0" type="matrix" in="shadowBlurOuter1"></feColorMatrix>
        </filter>
        <path d="M105,85 C107.761424,85 110,82.7614237 110,80 C110,77.2385763 107.761424,75 105,75 C102.238576,75 100,77.2385763 100,80 C100,82.7614237 102.238576,85 105,85 Z" id="path-6"></path>
       
		<filter x="-50%" y="-50%" width="300%" height="300%" filterUnits="objectBoundingBox" id="filter-7">
            <feMorphology radius="1" operator="dilate" in="SourceAlpha" result="shadowSpreadOuter1"></feMorphology>
            <feOffset dx="0" dy="1" in="shadowSpreadOuter1" result="shadowOffsetOuter1"></feOffset>
            <feGaussianBlur stdDeviation="3" in="shadowOffsetOuter1" result="shadowBlurOuter1"></feGaussianBlur>
            <feComposite in="shadowBlurOuter1" in2="SourceAlpha" operator="out" result="shadowBlurOuter1"></feComposite>
            <feColorMatrix values="0 0 0 0 0   0 0 0 0 0   0 0 0 0 0  0 0 0 0.5 0" type="matrix" in="shadowBlurOuter1"></feColorMatrix>
        </filter>
        <path d="M5,73 C7.76142375,73 10,70.7614237 10,68 C10,65.2385763 7.76142375,63 5,63 C2.23857625,63 0,65.2385763 0,68 C0,70.7614237 2.23857625,73 5,73 Z" id="path-8"></path>
        <filter x="-50%" y="-50%" width="300%" height="300%" filterUnits="objectBoundingBox" id="filter-9">
            <feMorphology radius="1" operator="dilate" in="SourceAlpha" result="shadowSpreadOuter1"></feMorphology>
            <feOffset dx="0" dy="1" in="shadowSpreadOuter1" result="shadowOffsetOuter1"></feOffset>
            <feGaussianBlur stdDeviation="3" in="shadowOffsetOuter1" result="shadowBlurOuter1"></feGaussianBlur>
            <feComposite in="shadowBlurOuter1" in2="SourceAlpha" operator="out" result="shadowBlurOuter1"></feComposite>
            <feColorMatrix values="0 0 0 0 0   0 0 0 0 0   0 0 0 0 0  0 0 0 0.5 0" type="matrix" in="shadowBlurOuter1"></feColorMatrix>
        </filter>
        <path d="M402,34 C404.761424,34 407,31.7614237 407,29 C407,26.2385763 404.761424,24 402,24 C399.238576,24 397,26.2385763 397,29 C397,31.7614237 399.238576,34 402,34 Z" id="path-10"></path>
        <filter x="-50%" y="-50%" width="300%" height="300%" filterUnits="objectBoundingBox" id="filter-11">
            <feMorphology radius="1" operator="dilate" in="SourceAlpha" result="shadowSpreadOuter1"></feMorphology>
            <feOffset dx="0" dy="1" in="shadowSpreadOuter1" result="shadowOffsetOuter1"></feOffset>
            <feGaussianBlur stdDeviation="3" in="shadowOffsetOuter1" result="shadowBlurOuter1"></feGaussianBlur>
            <feComposite in="shadowBlurOuter1" in2="SourceAlpha" operator="out" result="shadowBlurOuter1"></feComposite>
            <feColorMatrix values="0 0 0 0 0   0 0 0 0 0   0 0 0 0 0  0 0 0 0.5 0" type="matrix" in="shadowBlurOuter1"></feColorMatrix>
        </filter>
        <path d="M569,10 C571.761424,10 574,7.76142375 574,5 C574,2.23857625 571.761424,0 569,0 C566.238576,0 564,2.23857625 564,5 C564,7.76142375 566.238576,10 569,10 Z" id="path-12"></path>
        <filter x="-50%" y="-50%" width="300%" height="300%" filterUnits="objectBoundingBox" id="filter-13">
            <feMorphology radius="1" operator="dilate" in="SourceAlpha" result="shadowSpreadOuter1"></feMorphology>
            <feOffset dx="0" dy="1" in="shadowSpreadOuter1" result="shadowOffsetOuter1"></feOffset>
            <feGaussianBlur stdDeviation="3" in="shadowOffsetOuter1" result="shadowBlurOuter1"></feGaussianBlur>
            <feComposite in="shadowBlurOuter1" in2="SourceAlpha" operator="out" result="shadowBlurOuter1"></feComposite>
            <feColorMatrix values="0 0 0 0 0   0 0 0 0 0   0 0 0 0 0  0 0 0 0.5 0" type="matrix" in="shadowBlurOuter1"></feColorMatrix>
        </filter>
        <path d="M728,22 C730.761424,22 733,19.7614237 733,17 C733,14.2385763 730.761424,12 728,12 C725.238576,12 723,14.2385763 723,17 C723,19.7614237 725.238576,22 728,22 Z" id="path-14"></path>
        <filter x="-50%" y="-50%" width="300%" height="300%" filterUnits="objectBoundingBox" id="filter-15">
            <feMorphology radius="1" operator="dilate" in="SourceAlpha" result="shadowSpreadOuter1"></feMorphology>
            <feOffset dx="0" dy="1" in="shadowSpreadOuter1" result="shadowOffsetOuter1"></feOffset>
            <feGaussianBlur stdDeviation="3" in="shadowOffsetOuter1" result="shadowBlurOuter1"></feGaussianBlur>
            <feComposite in="shadowBlurOuter1" in2="SourceAlpha" operator="out" result="shadowBlurOuter1"></feComposite>
            <feColorMatrix values="0 0 0 0 0   0 0 0 0 0   0 0 0 0 0  0 0 0 0.5 0" type="matrix" in="shadowBlurOuter1"></feColorMatrix>
        </filter>
        <path d="M861,43 C863.761424,43 866,40.7614237 866,38 C866,35.2385763 863.761424,33 861,33 C858.238576,33 856,35.2385763 856,38 C856,40.7614237 858.238576,43 861,43 Z" id="path-16"></path>
        <filter x="-50%" y="-50%" width="300%" height="300%" filterUnits="objectBoundingBox" id="filter-17">
            <feMorphology radius="1" operator="dilate" in="SourceAlpha" result="shadowSpreadOuter1"></feMorphology>
            <feOffset dx="0" dy="1" in="shadowSpreadOuter1" result="shadowOffsetOuter1"></feOffset>
            <feGaussianBlur stdDeviation="3" in="shadowOffsetOuter1" result="shadowBlurOuter1"></feGaussianBlur>
            <feComposite in="shadowBlurOuter1" in2="SourceAlpha" operator="out" result="shadowBlurOuter1"></feComposite>
            <feColorMatrix values="0 0 0 0 0   0 0 0 0 0   0 0 0 0 0  0 0 0 0.5 0" type="matrix" in="shadowBlurOuter1"></feColorMatrix>
        </filter>
        <path d="M1002,24 C1004.76142,24 1007,21.7614237 1007,19 C1007,16.2385763 1004.76142,14 1002,14 C999.238576,14 997,16.2385763 997,19 C997,21.7614237 999.238576,24 1002,24 Z" id="path-18"></path>
        <filter x="-50%" y="-50%" width="300%" height="300%" filterUnits="objectBoundingBox" id="filter-19">
            <feMorphology radius="1" operator="dilate" in="SourceAlpha" result="shadowSpreadOuter1"></feMorphology>
            <feOffset dx="0" dy="1" in="shadowSpreadOuter1" result="shadowOffsetOuter1"></feOffset>
            <feGaussianBlur stdDeviation="3" in="shadowOffsetOuter1" result="shadowBlurOuter1"></feGaussianBlur>
            <feComposite in="shadowBlurOuter1" in2="SourceAlpha" operator="out" result="shadowBlurOuter1"></feComposite>
            <feColorMatrix values="0 0 0 0 0   0 0 0 0 0   0 0 0 0 0  0 0 0 0.5 0" type="matrix" in="shadowBlurOuter1"></feColorMatrix>
        </filter>
	<style type="text/css"><![CDATA[
     
	 
    ]]></style>
    </defs>
	
    <g id="Homepage-" stroke="none" stroke-width="1" fill="none" fill-rule="evenodd">
        <g id="Desktop">
            <g  id="Background" transform="translate(-6.000000, 0.000000)">
                <mask  id="mask-3" fill="white">
                    <use xlink:href="#path-2"></use>
                </mask>
                <use class="test_3"  id="Mask" fill="url(#linearGradient-1)" xlink:href="#path-2"></use>
                <g id="Lignes" opacity="0.049999991" mask="url(#mask-3)" stroke-linecap="square">
                    <g transform="translate(-3.000000, 55.000000)" id="Group-9">
                        <g>
                            <path d="M0.5,411.5 L1113.52881,411.5" id="Line" stroke="#FFFFFF"></path>
                            <path d="M0.5,341.5 L1113.52881,341.5" id="Line-Copy" stroke="#FFFFFF"></path>
                            <path d="M0.5,271.5 L1113.52881,271.5" id="Line-Copy-3" stroke="#FFFFFF"></path>
                            <path d="M0.5,201.5 L1113.52881,201.5" id="Line-Copy-2" stroke="#FFFFFF" opacity="0.800000012"></path>
                            <path d="M0.5,131.5 L1113.52881,131.5" id="Line-Copy-5" stroke="#FFFFFF" opacity="0.599999964"></path>
                            <path d="M0.5,61.5 L1113.52881,61.5" id="Line-Copy-4" stroke="#FFFFFF" opacity="0.400000006"></path>
                            <path d="M0.5,1.5 L1113.52881,1.5" id="Line-Copy-7" stroke="#FFFFFF" opacity="0.200000018"> </path>
                        </g>
                    </g>
                </g>
                <path class="test"  d="M-181.414062,429.453125 C-181.414062,429.453125 -76.2890625,317.289062 25.5078125,317.289062 C127.304688,317.289062 190.421875,387.664062 343.632812,387.664062 C496.84375,387.664062 530.914063,320.914062 592.1875,286.835938 C653.460938,252.757812 736.640625,204.374999 820.820313,226.15625 C905,247.937501 991.210938,333.890622 1076.16797,323.289061 C1161.125,312.6875 1237.03125,512.71875 1237.03125,512.71875 C1237.03125,512.71875 992.546875,648.593751 967.359375,648.59375 C942.171875,648.593749 310.953125,688.601564 297.617187,688.601562 C284.28125,688.601561 -198.757812,681.1875 -198.757812,681.1875 L-193.34375,473.75 L-181.414062,429.453125 Z" 
				id="Path-3" fill-opacity="0.0700000003" fill="#000000" mask="url(#mask-3)">
				<animateMotion path="M 0 0 H 10 V -10 Z" dur="2s" repeatCount="indefinite" />
				</path>
                
				
				<path class="test_2" d="M-206.285156,281.667969 C-140.96055,234.52519 -132.522737,274.344657 -112.082031,254.128906 C-64.5195312,207.089844 16.1640625,136.445312 170.554687,161.039062 C324.945312,185.632813 447.195313,381.890625 556.023438,390.335937 C664.851563,398.78125 759.148438,248.015625 921.03125,248.015625 C1082.91406,248.015625 1207.13672,408.628906 1207.13672,408.628906 L534.234375,788.921875 L-353.902344,474.980469 C-353.902344,474.980469 -292.961247,344.219463 -206.285156,281.667969 Z" 
				id="Path-4" fill-opacity="0.20700000003" fill="#000000" mask="url(#mask-3)">
				<animateMotion path="M 0 0 H 0 V -40 Z" dur="4s" repeatCount="indefinite" />
				</path>
                <g id="Points" transform="translate(0.000000, 476.000000)">
                    <g id="Oval-3">
                        <use fill="black" fill-opacity="1" filter="url(#filter-5)" xlink:href="#path-4"></use>
                        <use stroke="#FFF72A" stroke-width="3" fill="#103FA2" fill-rule="evenodd" xlink:href="#path-4"></use>
                    </g>
                    <g id="Oval-3-Copy-9">
                        <use fill="black" fill-opacity="1" filter="url(#filter-7)" xlink:href="#path-6"></use>
                        <use stroke="#FFF72A" stroke-width="3" fill="#103FA2" fill-rule="evenodd" xlink:href="#path-6"></use>
                    </g>
                    <g id="Oval-3-Copy-11">
                        <use fill="black" fill-opacity="1" filter="url(#filter-9)" xlink:href="#path-8"></use>
                        <use stroke="#FFF72A" stroke-width="3" fill="#103FA2" fill-rule="evenodd" xlink:href="#path-8"></use>
                    </g>
                    <g id="Oval-3-Copy-10">
                        <use fill="black" fill-opacity="1" filter="url(#filter-11)" xlink:href="#path-10"></use>
                        <use stroke="#FFF72A" stroke-width="3" fill="#1258AC" fill-rule="evenodd" xlink:href="#path-10"></use>
                    </g>
                    <g id="Oval-3-Copy-2">
                        <use fill="black" fill-opacity="1" filter="url(#filter-13)" xlink:href="#path-12"></use>
                        <use stroke="#FFF72A" stroke-width="3" fill="#103FA2" fill-rule="evenodd" xlink:href="#path-12"></use>
                    </g>
                    <g id="Oval-3-Copy-4">
                        <use fill="black" fill-opacity="1" filter="url(#filter-15)" xlink:href="#path-14"></use>
                        <use stroke="#FFF72A" stroke-width="3" fill="#103FA2" fill-rule="evenodd" xlink:href="#path-14"></use>
                    </g>
                    <g id="Oval-3-Copy-5">
                        <use fill="black" fill-opacity="1" filter="url(#filter-17)" xlink:href="#path-16"></use>
                        <use stroke="#FFF72A" stroke-width="3" fill="#103FA2" fill-rule="evenodd" xlink:href="#path-16"></use>
                    </g>
                    <g id="Oval-3-Copy-6">
                        <use fill="black" fill-opacity="1" filter="url(#filter-19)" xlink:href="#path-18"></use>
                        <use stroke="#FFF72A" stroke-width="3" fill="#103FA2" fill-rule="evenodd" xlink:href="#path-18"></use>
                    </g>
                </g>
            </g>
        </g>
    </g>
</svg>