<?xml version="1.0" encoding="UTF-8" standalone="no"?>
<svg width="37px" height="37px" viewBox="0 0 37 37" version="1.1" xmlns="http://www.w3.org/2000/svg" xmlns:xlink="http://www.w3.org/1999/xlink">
    <!-- Generator: Sketch 40.1 (33804) - http://www.bohemiancoding.com/sketch -->
    <title>slack [#175]</title>
    <desc>Created with Sketch.</desc>
    <defs></defs>
    <g id="Homepage-" stroke="none" stroke-width="1" fill="none" fill-rule="evenodd">
        <g id="Desktop" transform="translate(-75.000000, -1411.000000)" stroke="#0D70E2" stroke-width="2">
            <g id="Features" transform="translate(76.000000, 652.000000)">
                <g id="01" transform="translate(0.000000, 760.000000)">
                    <path d="M34.8856402,18.4707912 L34.8471402,18.3440504 C34.4393902,17.1259307 33.2791402,16.3144376 31.9596402,16.3249993 C31.6271402,16.3285199 31.2963902,16.3830889 30.9761402,16.4904665 L27.5391402,17.6592981 L25.3201402,11.0282908 L25.3201402,11.0282908 L25.3201402,11.0282908 C28.5576402,9.91578842 28.6258902,9.89290467 28.6258902,9.89290467 C30.0048902,9.42642818 31.1581402,7.97242977 30.6943902,6.34240249 L30.6558902,6.22270286 C30.2393902,4.97465822 29.1018902,4.17372689 27.7613902,4.18428862 C27.4603902,4.18604891 27.1576402,4.23005613 26.8566402,4.31807056 L23.4581402,5.46401846 L22.3276402,2.08954515 C22.0686402,1.31325786 21.5226402,0.686595102 20.7946402,0.322215354 C20.3606402,0.105699852 19.8968902,-0.00343804359 19.4191402,8.25336858e-05 C19.0988902,0.00360311096 18.7786402,0.0581720587 18.4688902,0.162029088 C16.9253902,0.686595102 16.0643902,2.3289444 16.5123902,3.90440273 L16.5526402,4.04346553 L17.6796402,7.41089769 L19.7096402,13.4768523 L21.7676402,19.62202 L15.2523902,21.8382234 L15.2523902,21.8382234 L13.0456402,15.2441821 L13.0456402,15.2441821 L13.0456402,15.2441821 C15.2681402,14.4802169 17.1546402,13.8324306 18.7891402,13.2708986 L17.6796402,7.41089769 L11.1591402,9.60773791 L10.0356402,6.25086748 C9.61564024,4.99226111 8.44489024,4.15436372 7.12364024,4.16492545 C6.80164024,4.16668574 6.48314024,4.22125468 6.17514024,4.32511171 C4.63164024,4.84791744 3.77239024,6.49202703 4.22039024,8.06748536 C4.23264024,8.11325286 4.24839024,8.15902036 4.26239024,8.20478787 L5.38239024,11.5546171 L5.38239024,11.5546171 L7.27939024,17.2245068 L7.27939024,17.2245068 L7.27939024,17.2245068 L9.48089024,23.8009452 L6.19789024,24.9169682 C4.64739024,25.4415342 3.78639024,27.0962055 4.23614024,28.678705 C4.25014024,28.7262328 4.26414024,28.7720003 4.27989024,28.8177678 C4.68239024,30.0218052 5.79364024,30.7945719 7.10964024,30.7840102 L7.10964024,30.7857705 C7.46139024,30.7822499 7.81489024,30.7206398 8.16139024,30.6044608 L11.3866402,29.4954789 L12.5293902,32.9121992 C12.9511402,34.1708055 14.1218902,35.0104632 15.4431402,34.9999015 L15.4431402,34.9999015 L15.4431402,34.9999015 C15.7633902,34.9963809 16.0818902,34.9435723 16.3881402,34.8397152 C17.9351402,34.3151492 18.7943902,32.6710396 18.3463902,31.093821 C18.3341402,31.0498138 18.3201402,31.002286 18.3043902,30.9582788 L17.1511402,27.5116336 L23.6593902,25.2743068 L24.8231402,28.7526371 C25.2431402,30.0094832 26.4138902,30.8473806 27.7351402,30.8385792 C28.0571402,30.8350586 28.3756402,30.7804896 28.6818902,30.6783929 C30.2253902,30.1555872 31.0846402,28.5097173 30.6208902,26.8744091 L30.5963902,26.7951962 L29.4238902,23.2904615 L33.0341402,22.049458 C33.0341402,22.049458 34.1523902,21.5600978 34.5076402,21.0056068 C34.9836402,20.2592445 35.1253902,19.3122092 34.8856402,18.4707912 L34.8856402,18.4707912 Z M6.56189024,17.4709473 C5.72539024,17.7578743 4.88539024,18.0465616 3.98589024,18.3546121 C3.65514024,18.4672706 3.31739024,18.5235999 2.97964024,18.5271204 C1.67239024,18.5376822 0.566390244,17.7543537 0.158640244,16.5327134 C0.142890244,16.4851856 0.128890244,16.4394181 0.116640244,16.3936506 C-0.327859756,14.828754 0.534890244,13.1916856 2.07839024,12.6671196 L5.32289024,11.5739803 L6.56189024,17.4709473 Z" id="slack-[#175]"></path>
                </g>
            </g>
        </g>
    </g>
</svg>