<?xml version="1.0" encoding="UTF-8" standalone="no"?>
<svg width="59px" height="31px" viewBox="0 0 59 31" version="1.1" xmlns="http://www.w3.org/2000/svg" xmlns:xlink="http://www.w3.org/1999/xlink">
    <!-- Generator: Sketch 40.1 (33804) - http://www.bohemiancoding.com/sketch -->
    <title>Group 3</title>
    <desc>Created with Sketch.</desc>
    <defs></defs>
    <g id="Homepage-" stroke="none" stroke-width="1" fill="none" fill-rule="evenodd">
        <g id="Desktop" transform="translate(-79.000000, -1689.000000)" stroke-width="2" stroke="#0D70E2">
            <g id="Features" transform="translate(76.000000, 652.000000)">
                <g id="03" transform="translate(4.000000, 1038.000000)">
                    <g id="Group-3">
                        <path d="M42.0375,29 C34.245125,29 27.90625,22.4957143 27.90625,14.5 C27.90625,6.50428571 34.245125,0 42.0375,0 C49.829875,0 56.16875,6.50428571 56.16875,14.5 C56.16875,22.4957143 49.829875,29 42.0375,29" id="Path"></path>
                        <path d="M14.13125,29 C6.338875,29 0,22.4957143 0,14.5 C0,6.50428571 6.338875,0 14.13125,0 C21.923625,0 28.2625,6.50428571 28.2625,14.5 C28.2625,22.4957143 21.923625,29 14.13125,29" id="Path"></path>
                    </g>
                </g>
            </g>
        </g>
    </g>
</svg>