<?xml version="1.0" encoding="UTF-8" standalone="no"?>
<svg width="40px" height="38px" viewBox="0 0 40 38" version="1.1" xmlns="http://www.w3.org/2000/svg" xmlns:xlink="http://www.w3.org/1999/xlink">
    <!-- Generator: Sketch 40.1 (33804) - http://www.bohemiancoding.com/sketch -->
    <title>messages_chat [#1557]</title>
    <desc>Created with Sketch.</desc>
    <defs></defs>
    <g id="Homepage-" stroke="none" stroke-width="1" fill="none" fill-rule="evenodd">
        <g id="Desktop" transform="translate(-167.000000, -1271.000000)" stroke="#0D70E2" stroke-width="2">
            <g id="Features" transform="translate(-308.000000, 518.000000)">
                <g id="02" transform="translate(476.000000, 754.000000)">
                    <path d="M23.0622046,3.29760131 C15.55451,-3.26446372 3.91297491,0.448398388 1.32867237,10.1807033 C0.243473995,14.2652005 1.29041217,16.1617612 1.29041217,19.2273151 C1.29041217,22.3783626 0,26.9426705 0,26.9426705 C0,27.5009956 0.495643489,28.0453626 1.10606758,27.8865889 C3.28863803,27.3160504 6.75988155,26.1871868 10.9111132,27.3143057 C24.8708685,31.0987032 33.8289724,12.7071245 23.0622046,3.29760131 M37.0324471,36 C36.9420139,36 36.8481025,35.9877866 36.752452,35.9633599 C25.7161237,33.1926715 26.4569803,36.3053341 20.3249138,34.665254 C18.4692942,34.1697404 16.7806281,33.2764202 15.3232623,32.1178956 C26.4604585,33.4823026 35.7437741,23.7796588 34.1003246,12.3531861 C35.7820343,14.1031864 37.0167952,16.2701858 37.5385252,18.6971553 C39.0237166,25.5854916 35.2533479,24.4199879 37.9715611,34.888584 C38.1315583,35.5009969 37.5889591,36 37.0324471,36" id="messages_chat-[#1557]"></path>
                </g>
            </g>
        </g>
    </g>
</svg>