<?xml version="1.0" encoding="UTF-8" standalone="no"?>
<svg width="41px" height="38px" viewBox="0 0 41 38" version="1.1" xmlns="http://www.w3.org/2000/svg" xmlns:xlink="http://www.w3.org/1999/xlink">
    <!-- Generator: Sketch 40.1 (33804) - http://www.bohemiancoding.com/sketch -->
    <title>Award</title>
    <desc>Created with Sketch.</desc>
    <defs></defs>
    <g id="Homepage-" stroke="none" stroke-width="1" fill="none" fill-rule="evenodd">
        <g id="Desktop" transform="translate(-549.000000, -1688.000000)" fill="#0D70E2">
            <g id="Features" transform="translate(76.000000, 652.000000)">
                <g id="04" transform="translate(0.000000, 1036.000000)">
                    <g id="Award" transform="translate(473.000000, 0.000000)">
                        <path d="M19.3283,35.8929 L19.3283,28.1231 C19.3283,27.6551 19.7073,27.2761 20.1753,27.2761 C20.6433,27.2761 21.0223,27.6551 21.0223,28.1231 L21.0223,35.8929 L27.7397,35.8929 C28.2077,35.8929 28.5867,36.2719 28.5867,36.7389 C28.5867,37.2069 28.2077,37.5859 27.7397,37.5859 L12.6107,37.5859 C12.1427,37.5859 11.7637,37.2069 11.7637,36.7389 C11.7637,36.2719 12.1427,35.8929 12.6107,35.8929 L19.3283,35.8929 Z" id="Combined-Shape"></path>
                        <path d="M9.0425,1.6932 C9.2295,9.4202 11.9695,16.9572 16.8045,23.0032 L20.1755,27.2162 L23.5455,23.0032 C28.3805,16.9572 31.1195,9.4202 31.3075,1.6932 L9.0425,1.6932 Z M14.3235334,22.5315646 C14.6956891,23.0500658 15.081756,23.559501 15.4815,24.0592 L19.5145,29.0982 C19.6755,29.3002 19.9185,29.4172 20.1755,29.4172 C20.4325,29.4172 20.6755,29.3002 20.8365,29.0982 L24.8675,24.0592 C30.1185,17.4952 33.0105,9.2512 33.0105,0.8462 C33.0105,0.3792 32.6315,0.0002 32.1635,0.0002 L8.1855,0.0002 C7.7185,0.0002 7.3395,0.3792 7.3395,0.8462 C7.3395,1.97092965 7.3912689,3.09277628 7.4935343,4.2081 L0.8462,4.2081 C0.6072,4.2081 0.3792,4.3091 0.2192,4.4861 C0.0582,4.6641 -0.0198,4.9001 0.0042,5.1381 C0.0210234431,5.31029289 1.83688798,22.1811519 14.3235334,22.5315646 Z M13.1131745,20.7363214 C10.2700677,16.2407124 8.41620537,11.1654254 7.68814433,5.9011 L1.8202,5.9011 C2.0542,7.3341 2.6522,10.2131 3.9832,13.0521 C6.12325478,17.6173736 9.18928824,20.1950667 13.1131745,20.7363214 Z" id="Combined-Shape"></path>
                        <path d="M25.5854,22.5371 C25.1174,22.5371 24.7384,22.1581 24.7384,21.6901 C24.7384,21.2231 25.1174,20.8441 25.5854,20.8441 C30.2864,20.8441 33.8984,18.2231 36.3224,13.0521 C37.6534,10.2131 38.2514,7.3341 38.4854,5.9011 L31.9184,5.9011 C31.4504,5.9011 31.0714,5.5221 31.0714,5.0551 C31.0714,4.5871 31.4504,4.2081 31.9184,4.2081 L39.4594,4.2081 C39.6984,4.2081 39.9264,4.3091 40.0864,4.4861 C40.2474,4.6641 40.3254,4.9001 40.3014,5.1381 C40.2844,5.3121 38.4304,22.5371 25.5854,22.5371" id="Fill-7"></path>
                    </g>
                </g>
            </g>
        </g>
    </g>
</svg>