<?xml version="1.0" encoding="utf-8"?>
<!-- Generator: Adobe Illustrator 17.0.0, SVG Export Plug-In . SVG Version: 6.00 Build 0)  -->
<!DOCTYPE svg PUBLIC "-//W3C//DTD SVG 1.1//EN" "http://www.w3.org/Graphics/SVG/1.1/DTD/svg11.dtd">
<svg version="1.1" id="Calque_1" xmlns="http://www.w3.org/2000/svg" xmlns:xlink="http://www.w3.org/1999/xlink" x="0px" y="0px"
	 width="33.75px" height="8.562px" viewBox="0 0 33.75 8.562" enable-background="new 0 0 33.75 8.562" xml:space="preserve">
<g id="Header" transform="translate(-6.000000, -5.000000)">
	<g>
		<g id="Logo-Copy_8_" transform="translate(46.000000, 89.000000)">
			<g id="Group-30_8_">
				<path id="Fill-252_8_" fill="#FFFFFF" d="M-35.964-79.36c0.738,0.737,1.936,0.737,2.673,0c0.092-0.092,0.092-0.242,0-0.334
					s-0.242-0.092-0.333,0c-0.277,0.277-0.639,0.415-1.003,0.415s-0.726-0.138-1.002-0.415c-0.092-0.092-0.242-0.092-0.334,0
					C-36.056-79.603-36.056-79.452-35.964-79.36"/>
				<circle id="Oval-2_17_" fill="#FFFFFF" cx="-35.42" cy="-81.132" r="0.405"/>
				<circle id="Oval-2_16_" fill="#FFFFFF" cx="-33.799" cy="-81.132" r="0.405"/>
				<path id="Fill-253_8_" fill="#FFFFFF" d="M-35.319-76.337h1.418c0.13,0,0.236-0.106,0.236-0.237c0-0.13-0.106-0.236-0.236-0.236
					h-1.418c-0.13,0-0.236,0.106-0.236,0.236S-35.449-76.337-35.319-76.337"/>
				<path id="Fill-254_8_" fill="#FFFFFF" d="M-35.555-77.284h1.89c0.131,0,0.237-0.106,0.237-0.236s-0.106-0.237-0.237-0.237h-1.89
					c-0.131,0-0.237,0.106-0.237,0.237S-35.686-77.284-35.555-77.284"/>
				<path id="Fill-255_8_" fill="#FFFFFF" d="M-33.11-78.771c-0.329,0.268-0.555,0.664-0.555,1.114v0.846h-0.447l-0.055,0.159
					c-0.062,0.179-0.24,0.315-0.443,0.314c-0.203,0.001-0.383-0.134-0.45-0.317l-0.056-0.156h-0.44v-0.846
					c0-0.452-0.231-0.847-0.56-1.114h0.001c-0.525-0.435-0.859-1.086-0.86-1.822c0-0.651,0.265-1.241,0.694-1.669
					s1.018-0.694,1.67-0.694c0.651,0,1.24,0.265,1.669,0.694c0.428,0.429,0.693,1.018,0.693,1.669
					C-32.247-79.856-32.581-79.205-33.11-78.771L-33.11-78.771z M-34.609-83.427c-1.563,0-2.836,1.272-2.836,2.836
					c0,0.881,0.403,1.667,1.031,2.186l0.001,0.001c0.239,0.196,0.387,0.463,0.386,0.748v0.846c0,0.128,0.052,0.249,0.137,0.334
					c0.086,0.086,0.207,0.139,0.335,0.139h0.127c0.165,0.281,0.468,0.471,0.818,0.472c0.348,0,0.652-0.19,0.814-0.472h0.13
					c0.128,0,0.25-0.052,0.335-0.139c0.086-0.085,0.138-0.206,0.138-0.334v-0.846c0-0.287,0.143-0.553,0.381-0.748
					c0.634-0.52,1.038-1.306,1.037-2.187C-31.775-82.155-33.046-83.427-34.609-83.427L-34.609-83.427z"/>
			</g>
		</g>
	</g>
</g>
<rect x="11.875" y="1.718" fill="none" width="24.5" height="8.756"/>
<g enable-background="new    ">
	<path fill="#FFFFFF" d="M14.053,3.601c-0.024,0.044-0.061,0.066-0.111,0.066c-0.03,0-0.064-0.012-0.102-0.033
		c-0.038-0.022-0.084-0.047-0.139-0.073c-0.055-0.027-0.121-0.053-0.197-0.075c-0.076-0.023-0.166-0.035-0.27-0.035
		c-0.09,0-0.171,0.012-0.243,0.035c-0.072,0.022-0.134,0.055-0.185,0.095c-0.051,0.04-0.09,0.086-0.117,0.139
		c-0.027,0.054-0.041,0.111-0.041,0.173c0,0.078,0.022,0.144,0.067,0.195c0.045,0.052,0.104,0.097,0.179,0.135
		c0.074,0.038,0.158,0.071,0.252,0.101s0.19,0.06,0.29,0.093s0.195,0.069,0.29,0.109c0.094,0.04,0.178,0.09,0.252,0.15
		c0.074,0.06,0.133,0.134,0.179,0.221c0.045,0.087,0.067,0.191,0.067,0.313c0,0.14-0.025,0.27-0.075,0.389
		c-0.05,0.118-0.124,0.222-0.222,0.309c-0.098,0.087-0.218,0.155-0.36,0.205c-0.142,0.051-0.306,0.075-0.492,0.075
		c-0.212,0-0.404-0.034-0.576-0.104c-0.172-0.068-0.318-0.157-0.438-0.266l0.126-0.204c0.016-0.025,0.035-0.046,0.057-0.06
		s0.051-0.021,0.087-0.021s0.074,0.015,0.114,0.042c0.04,0.028,0.089,0.06,0.146,0.094c0.057,0.034,0.126,0.064,0.207,0.093
		s0.183,0.042,0.305,0.042c0.104,0,0.195-0.014,0.273-0.041c0.078-0.026,0.143-0.063,0.195-0.109
		c0.052-0.046,0.091-0.099,0.116-0.158c0.025-0.061,0.038-0.124,0.038-0.192c0-0.084-0.022-0.153-0.068-0.209
		c-0.045-0.055-0.104-0.102-0.178-0.141c-0.074-0.039-0.159-0.073-0.253-0.102c-0.095-0.029-0.192-0.06-0.291-0.092
		s-0.196-0.068-0.291-0.109c-0.095-0.041-0.18-0.093-0.253-0.154c-0.074-0.062-0.134-0.139-0.179-0.229
		c-0.045-0.092-0.067-0.202-0.067-0.332c0-0.116,0.024-0.228,0.072-0.334c0.048-0.107,0.118-0.201,0.21-0.282
		c0.092-0.081,0.205-0.146,0.339-0.193c0.134-0.049,0.287-0.072,0.459-0.072c0.2,0,0.379,0.031,0.539,0.095
		c0.159,0.062,0.296,0.149,0.412,0.259L14.053,3.601z"/>
	<path fill="#FFFFFF" d="M15.472,1.72v2.601h0.138c0.04,0,0.073-0.005,0.099-0.017c0.026-0.011,0.055-0.033,0.087-0.067l0.96-1.028
		c0.03-0.032,0.06-0.059,0.09-0.078c0.03-0.021,0.07-0.03,0.12-0.03h0.486l-1.119,1.191c-0.028,0.033-0.056,0.063-0.083,0.09
		c-0.027,0.025-0.058,0.049-0.091,0.068c0.036,0.024,0.068,0.052,0.097,0.083c0.029,0.031,0.057,0.066,0.083,0.106l1.188,1.5h-0.48
		c-0.044,0-0.082-0.009-0.112-0.025c-0.031-0.017-0.061-0.044-0.088-0.08L15.847,4.79c-0.03-0.042-0.06-0.07-0.09-0.083
		c-0.03-0.013-0.075-0.02-0.135-0.02h-0.15v1.452h-0.537V1.72H15.472z"/>
	<path fill="#FFFFFF" d="M18.775,2.146c0,0.052-0.011,0.101-0.031,0.146c-0.021,0.045-0.05,0.085-0.084,0.12
		c-0.035,0.035-0.076,0.062-0.122,0.083c-0.046,0.02-0.095,0.029-0.146,0.029c-0.053,0-0.101-0.01-0.146-0.029
		c-0.045-0.021-0.085-0.048-0.12-0.083s-0.062-0.075-0.083-0.12c-0.02-0.045-0.029-0.094-0.029-0.146s0.01-0.102,0.029-0.148
		c0.021-0.047,0.048-0.088,0.083-0.123s0.075-0.062,0.12-0.082c0.045-0.021,0.093-0.03,0.146-0.03c0.052,0,0.101,0.01,0.146,0.03
		c0.046,0.02,0.087,0.047,0.122,0.082c0.034,0.035,0.062,0.076,0.084,0.123C18.765,2.045,18.775,2.094,18.775,2.146z M18.655,3.1
		v3.039h-0.534V3.1H18.655z"/>
	<path fill="#FFFFFF" d="M20.191,1.72v4.419h-0.534V1.72H20.191z"/>
	<path fill="#FFFFFF" d="M21.728,1.72v4.419h-0.534V1.72H21.728z"/>
	<path fill="#FFFFFF" d="M24.79,3.329c0,0.037-0.007,0.074-0.021,0.109c-0.015,0.035-0.032,0.066-0.055,0.094l-1.644,2.19h1.659
		v0.417h-2.289V5.918c0-0.026,0.006-0.057,0.02-0.092c0.013-0.035,0.031-0.068,0.056-0.101l1.652-2.205h-1.635V3.1h2.256V3.329z"/>
</g>
</svg>
